<?xml version="1.0" standalone="no"?>
<!DOCTYPE svg PUBLIC "-//W3C//DTD SVG 20010904//EN"
 "http://www.w3.org/TR/2001/REC-SVG-20010904/DTD/svg10.dtd">
<svg version="1.0" xmlns="http://www.w3.org/2000/svg"
 width="534.000000pt" height="534.000000pt" viewBox="0 0 534.000000 534.000000"
 preserveAspectRatio="xMidYMid meet">
<metadata>
Created by potrace 1.14, written by Peter Selinger 2001-2017
</metadata>
<g transform="translate(0.000000,534.000000) scale(0.100000,-0.100000)"
fill="#000000" stroke="none">
<path d="M2305 4675 c-203 -118 -529 -306 -722 -417 l-353 -203 0 -338 0 -337
43 6 c23 4 355 57 737 119 l695 111 1060 -213 c583 -117 1066 -213 1073 -213
9 0 12 72 12 325 l0 324 -62 30 c-35 16 -193 93 -353 171 -301 148 -553 270
-810 395 -82 40 -280 137 -440 215 -400 196 -492 240 -502 239 -4 0 -174 -97
-378 -214z"/>
<path d="M2645 3413 c-35 -6 -284 -53 -445 -83 -85 -16 -239 -45 -342 -65
-104 -19 -270 -51 -370 -70 -631 -119 -980 -185 -984 -185 -2 0 -3 -114 -2
-252 l3 -252 40 -8 c22 -4 126 -23 230 -43 214 -41 187 -35 950 -180 308 -58
630 -119 715 -135 85 -16 173 -32 195 -35 28 -4 133 12 345 55 168 33 476 94
685 136 209 41 412 82 452 90 l71 16 -1 356 -2 357 -685 137 c-810 161 -829
165 -855 161z"/>
<path d="M4630 2285 c-63 -13 -523 -105 -1022 -204 l-907 -181 -753 125 c-414
69 -765 128 -780 131 l-28 6 0 -339 0 -339 467 -254 c256 -140 501 -274 542
-296 42 -23 163 -89 270 -148 107 -58 202 -108 211 -111 10 -3 306 139 711
341 382 190 857 427 1057 525 l362 180 0 294 c0 162 -3 295 -7 294 -5 0 -60
-11 -123 -24z"/>
</g>
</svg>
